<?xml version="1.0" encoding="UTF-8"?>
<svg version="1.1" xmlns="http://www.w3.org/2000/svg" width="1536" height="1024">
<path d="M0 0 C506.88 0 1013.76 0 1536 0 C1536 337.92 1536 675.84 1536 1024 C1029.12 1024 522.24 1024 0 1024 C0 686.08 0 348.16 0 0 Z " fill="#012A55" transform="translate(0,0)"/>
<path d="M0 0 C0.88526367 0.27875977 1.77052734 0.55751953 2.68261719 0.84472656 C5.63322541 1.80263743 8.56677841 2.80266767 11.5 3.8125 C18.36140653 6.14137725 25.21094186 8.41687061 32.1875 10.375 C40.95245491 12.86248321 49.51764276 15.90680434 58.11669922 18.90991211 C69.57892218 22.90138946 81.11775609 26.64038174 92.67944336 30.33251953 C99.17808449 32.41162271 105.64441852 34.50874361 112 37 C108.60326697 38.85276347 105.13095396 39.99049196 101.4375 41.125 C100.30183594 41.47820312 99.16617188 41.83140625 97.99609375 42.1953125 C95 43 95 43 92 43 C92 53.23 92 63.46 92 74 C93.32 74.66 94.64 75.32 96 76 C98.46466096 79.69699144 98.25779399 81.59420931 98.265625 86.00390625 C98.26753845 86.68299545 98.2694519 87.36208466 98.27142334 88.06175232 C98.27278247 89.49486665 98.26910496 90.92799341 98.26074219 92.36108398 C98.25002167 94.55805985 98.26065453 96.75422114 98.2734375 98.95117188 C98.27211618 100.34375181 98.26955436 101.73633123 98.265625 103.12890625 C98.26336914 104.39806885 98.26111328 105.66723145 98.25878906 106.97485352 C98 110 98 110 96 112 C92.84765625 112.30078125 92.84765625 112.30078125 89.0625 112.3125 C87.81597656 112.32925781 86.56945312 112.34601563 85.28515625 112.36328125 C82 112 82 112 80.3059082 110.91064453 C78.31006293 107.9905688 78.71324626 105.56263431 78.8203125 102.06640625 C78.83963837 101.39206039 78.85896423 100.71771454 78.87887573 100.02293396 C78.9237259 98.59795739 78.9763329 97.17320681 79.03613281 95.7487793 C79.12452606 93.57415963 79.18118221 91.40034236 79.234375 89.22460938 C79.28194791 87.83847493 79.3313664 86.45240235 79.3828125 85.06640625 C79.42809082 83.80771729 79.47336914 82.54902832 79.52001953 81.25219727 C80.01786269 77.87896804 80.58664841 76.37064069 83 74 C83.66 74 84.32 74 85 74 C85 64.76 85 55.52 85 46 C78.565 47.98 78.565 47.98 72 50 C66.01535185 50.67000281 60.9258396 49.08263672 55.24609375 47.3671875 C54.30935318 47.09286896 53.37261261 46.81855042 52.40748596 46.53591919 C49.41480819 45.65776598 46.42608932 44.76695738 43.4375 43.875 C39.54139721 42.72304677 35.64374624 41.57638421 31.74609375 40.4296875 C30.78593353 40.14575134 29.82577332 39.86181519 28.83651733 39.5692749 C20.83010236 37.21232482 12.78694651 35.00470363 4.71812439 32.87155151 C3.84958328 32.63953033 2.98104218 32.40750916 2.08618164 32.16845703 C1.31891251 31.96608429 0.55164337 31.76371155 -0.23887634 31.5552063 C-2 31 -2 31 -3 30 C-8.23087636 29.56409364 -12.0901769 30.49559128 -16.984375 32.34375 C-19 33 -19 33 -22 33 C-22 33.66 -22 34.32 -22 35 C-21.05511719 35.10957031 -20.11023438 35.21914063 -19.13671875 35.33203125 C-14.25131719 36.03379487 -9.56028872 37.36389944 -4.8125 38.6875 C-3.84707275 38.95369141 -2.88164551 39.21988281 -1.88696289 39.49414062 C5.2679499 41.48145404 12.38762804 43.57535322 19.49072266 45.73999023 C23.9190662 47.08722826 28.35523254 48.39199975 32.8125 49.640625 C33.772771 49.91003906 34.73304199 50.17945313 35.72241211 50.45703125 C37.57612891 50.97459956 39.431066 51.48782257 41.28735352 51.99609375 C42.53923462 52.34607422 42.53923462 52.34607422 43.81640625 52.703125 C44.92157593 53.00718262 44.92157593 53.00718262 46.04907227 53.31738281 C48 54 48 54 51 56 C39.94222654 59.80051281 28.78436407 63.26592745 17.60864258 66.70092773 C16.41392334 67.06903564 15.2192041 67.43714355 13.98828125 67.81640625 C12.81861816 68.17492676 11.64895508 68.53344727 10.44384766 68.90283203 C6.15244289 70.27002138 1.92516904 71.79857407 -2.29223633 73.37866211 C-7.8652656 74.65747912 -13.48287353 72.4386515 -18.875 70.9375 C-19.64674561 70.72343506 -20.41849121 70.50937012 -21.21362305 70.28881836 C-28.85919092 68.11997513 -36.36692656 65.57115324 -43.89086914 63.01782227 C-51.34236429 60.50640774 -58.83711714 58.26167408 -66.41064453 56.15087891 C-72.21032049 54.5296184 -77.95489343 52.78136207 -83.6875 50.9375 C-90.57296711 48.72382911 -97.49282356 46.72697957 -104.47290039 44.83496094 C-111.74782706 42.84094204 -118.87360045 40.47006474 -126 38 C-123.41782976 35.41782976 -120.55056785 34.5372858 -117.1875 33.3125 C-116.13973389 32.92602295 -116.13973389 32.92602295 -115.07080078 32.53173828 C-109.20268319 30.39054728 -103.29626373 28.36387499 -97.375 26.375 C-96.55410889 26.09825439 -95.73321777 25.82150879 -94.88745117 25.53637695 C-90.07449346 23.94024061 -85.2402088 22.49412782 -80.35546875 21.1328125 C-72.43733838 18.89489316 -64.69890693 16.22125601 -56.9375 13.5 C-48.31380395 10.48432025 -39.69378362 7.55144548 -30.94555664 4.91113281 C-28.23648525 4.07315068 -25.56405696 3.17115569 -22.890625 2.2265625 C-22.11589844 1.95972656 -21.34117187 1.69289063 -20.54296875 1.41796875 C-18.9930438 0.88196404 -17.44876663 0.32938635 -15.91015625 -0.23828125 C-9.94682187 -2.24603705 -5.93671407 -1.92077285 0 0 Z " fill="#F9FAFB" transform="translate(439,385)"/>
<path d="M0 0 C5.96862946 5.19558407 11.506459 11.0276858 16 17.5625 C16 18.2225 16 18.8825 16 19.5625 C19.26306905 16.50337277 21.9798273 13.31446163 24.6875 9.75 C35.09668195 -3.33416725 49.99066213 -11.40522288 66 -15.4375 C67.83884766 -15.97503906 67.83884766 -15.97503906 69.71484375 -16.5234375 C74.69027038 -17.75487334 79.58575661 -17.73913083 84.6875 -17.6875 C85.66211182 -17.68000732 86.63672363 -17.67251465 87.64086914 -17.66479492 C117.21268134 -17.22481866 117.21268134 -17.22481866 125 -9.4375 C125.04092937 -7.10452567 125.04241723 -4.77044775 125 -2.4375 C124.20980469 -2.5096875 123.41960937 -2.581875 122.60546875 -2.65625 C90.4699857 -5.30054118 59.40753634 -2.49552407 33.1328125 17.7421875 C32.42898438 18.34289062 31.72515625 18.94359375 31 19.5625 C31 19.8925 31 20.2225 31 20.5625 C32.00740234 19.68078125 32.00740234 19.68078125 33.03515625 18.78125 C36.31839737 16.32422634 39.69079708 14.66182398 43.4375 13.0625 C44.13617188 12.76061768 44.83484375 12.45873535 45.5546875 12.14770508 C52.22113781 9.34113553 58.98314702 7.32506664 66 5.5625 C66.63139893 5.39459961 67.26279785 5.22669922 67.91333008 5.05371094 C80.84344702 1.67177085 94.01005055 1.36695399 107.3125 1.3125 C108.58246826 1.30331543 109.85243652 1.29413086 111.16088867 1.28466797 C112.36205322 1.28869629 113.56321777 1.29272461 114.80078125 1.296875 C115.87497314 1.29913086 116.94916504 1.30138672 118.0559082 1.30371094 C121.06951078 1.56861008 123.2707438 2.29202225 126 3.5625 C126.33 6.2025 126.66 8.8425 127 11.5625 C120.98872227 13.0409572 115.12761395 13.97105764 108.9609375 14.45703125 C107.23942752 14.60558521 105.51799441 14.75503217 103.79663086 14.90527344 C102.91039032 14.98128784 102.02414978 15.05730225 101.11105347 15.13562012 C74.62521805 17.45289069 49.28219066 19.99083156 28 37.5625 C27.21625 38.531875 26.4325 39.50125 25.625 40.5 C21.8378491 43.47561856 18.63241244 43.37843785 13.91015625 43.171875 C9.91340501 42.33497139 8.50125079 40.68265191 5.9453125 37.6328125 C-1.62460491 29.5764747 -12.71890118 25.77567963 -23 22.5625 C-23.98250732 22.23894531 -24.96501465 21.91539062 -25.97729492 21.58203125 C-39.15355528 17.62985889 -52.80258877 16.69041729 -66.4375 15.3125 C-69.0189947 15.04276015 -71.60037631 14.77193566 -74.18164062 14.5 C-80.45319295 13.84165216 -86.726094 13.19800958 -93 12.5625 C-92.34 9.2625 -91.68 5.9625 -91 2.5625 C-85.65131538 2.48694813 -80.30295775 2.43325515 -74.95385742 2.39770508 C-73.14358088 2.3828471 -71.33333876 2.36255506 -69.52319336 2.33618164 C-43.41508564 1.9660083 -20.71163544 6.51539028 2 19.5625 C-18.93639633 1.1024114 -43.79075132 -2.60378184 -70.75 -3.0625 C-72.62241229 -3.10076544 -74.49480859 -3.13982184 -76.3671875 -3.1796875 C-80.91132549 -3.27474004 -85.45554539 -3.35910338 -90 -3.4375 C-89.19677734 -10.25585938 -89.19677734 -10.25585938 -87.42578125 -11.890625 C-84.96340228 -12.81913759 -82.52191418 -13.68092575 -80 -14.4375 C-79.030625 -14.7365625 -78.06125 -15.035625 -77.0625 -15.34375 C-50.98930976 -22.11275131 -21.19303823 -16.79005245 0 0 Z " fill="#F6F7F8" transform="translate(414,519.4375)"/>
<path d="M0 0 C5.61 0 11.22 0 17 0 C17 33.99 17 67.98 17 103 C12.05 103 7.1 103 2 103 C2 99.7 2 96.4 2 93 C1.34 93 0.68 93 0 93 C-0.20625 93.556875 -0.4125 94.11375 -0.625 94.6875 C-3.20794992 99.03155213 -7.37526496 102.05762212 -12 104 C-20.59481518 105.22643469 -31.96494011 105.84894936 -39.25 100.60546875 C-39.8275 100.07566406 -40.405 99.54585937 -41 99 C-41.639375 98.41863281 -42.27875 97.83726562 -42.9375 97.23828125 C-51.50768431 88.43598778 -53.27142976 77.72955469 -53.24438477 65.92382812 C-53.07912267 55.16558945 -50.26085542 47.14564051 -43 39 C-35.42395239 32.41686348 -27.69343517 30.48736705 -17.81640625 30.6796875 C-10.73398336 31.48517804 -5.99927498 34.00072502 -1 39 C-0.67 26.13 -0.34 13.26 0 0 Z " fill="#F9FAFB" transform="translate(851,434)"/>
<path d="M0 0 C2.9375 2.5625 2.9375 2.5625 5 5 C5.66 5.66 6.32 6.32 7 7 C7 7.99 7 8.98 7 10 C7.66 10 8.32 10 9 10 C9.38091797 9.12214844 9.38091797 9.12214844 9.76953125 8.2265625 C12.50703732 3.27298009 17.19343202 -0.21601767 22.3125 -2.4375 C31.18186661 -3.79045423 39.12984217 -3.78645033 47 1 C52.40642622 5.69371466 56.54930945 11.40710763 57.2624054 18.67411804 C57.34632053 21.8793223 57.33716581 25.07133919 57.29296875 28.27734375 C57.28872391 29.4438295 57.28447906 30.61031525 57.28010559 31.81214905 C57.26337522 35.52083874 57.22573221 39.22897582 57.1875 42.9375 C57.17244593 45.4589765 57.15875879 47.98046156 57.14648438 50.50195312 C57.11348997 56.66818017 57.06174553 62.83399653 57 69 C51.06 69 45.12 69 39 69 C38.98541748 67.54182861 38.97083496 66.08365723 38.95581055 64.58129883 C38.89780353 59.16715063 38.82057005 53.75341727 38.73754883 48.33959961 C38.70431094 45.99722022 38.6762755 43.65476096 38.65356445 41.31225586 C38.61999832 37.94350167 38.56767981 34.57547869 38.51171875 31.20703125 C38.50532883 30.16102249 38.4989389 29.11501373 38.49235535 28.03730774 C38.41160907 21.00885085 38.41160907 21.00885085 35 15 C30.95795203 12.27780443 26.70453007 12.36182027 22 13 C17.08078577 15.22756871 15.08262752 17.97663524 12.83605957 22.6628418 C11.33851245 26.84915181 11.39650184 31.00016066 11.390625 35.40625 C11.37408875 36.3715564 11.35755249 37.33686279 11.34051514 38.3314209 C11.29227536 41.38768021 11.27071752 44.44344281 11.25 47.5 C11.22182025 49.583358 11.19189004 51.6666931 11.16015625 53.75 C11.08652276 58.8332924 11.03680153 63.91631294 11 69 C5.39 69 -0.22 69 -6 69 C-6.029729 67.02592163 -6.029729 67.02592163 -6.06005859 65.01196289 C-6.13652535 60.09722795 -6.22517759 55.18277332 -6.31738281 50.26831055 C-6.35550365 48.14727338 -6.39038501 46.02617527 -6.421875 43.9050293 C-6.46789444 40.84401777 -6.525826 37.78341966 -6.5859375 34.72265625 C-6.59748871 33.78478775 -6.60903992 32.84691925 -6.62094116 31.88063049 C-6.7071488 23.23193464 -6.7071488 23.23193464 -9 15 C-13.60926124 12.0537883 -18.71946994 12.25766461 -24 13 C-28.76166142 15.2278456 -31.11848527 19.2513039 -33 24 C-33.45468517 27.47566405 -33.48824571 30.92759862 -33.51171875 34.4296875 C-33.52966995 35.42001984 -33.54762115 36.41035217 -33.56611633 37.43069458 C-33.62008901 40.57875371 -33.65407356 43.72666233 -33.6875 46.875 C-33.72068454 49.01564588 -33.75517525 51.15627194 -33.79101562 53.296875 C-33.8758082 58.5311412 -33.94268184 63.76536376 -34 69 C-39.94 69 -45.88 69 -52 69 C-52 45.57 -52 22.14 -52 -2 C-47.05 -2 -42.1 -2 -37 -2 C-35.41727399 -0.41727399 -35.65264253 1.38034003 -35.4375 3.5625 C-35.31181641 4.80193359 -35.31181641 4.80193359 -35.18359375 6.06640625 C-35.12300781 6.70449219 -35.06242188 7.34257812 -35 8 C-34.319375 7.0925 -33.63875 6.185 -32.9375 5.25 C-24.81275689 -4.51354073 -10.96398839 -5.50366216 0 0 Z " fill="#F6F8F9" transform="translate(1007,468)"/>
<path d="M0 0 C6.34006916 5.05600452 10.38127972 11.50107172 11.8515625 19.4765625 C13.0527815 32.12195319 12.21258982 44.25752911 3.8515625 54.4765625 C-3.72508167 62.47608913 -10.95089798 65.61176561 -21.90551758 65.93774414 C-22.83130615 65.9505542 -23.75709473 65.96336426 -24.7109375 65.9765625 C-26.04064575 66.00447876 -26.04064575 66.00447876 -27.3972168 66.03295898 C-36.28541108 65.9479795 -44.63169887 62.63386471 -51.1484375 56.4765625 C-57.76642981 48.34811077 -60.67480302 40.45805601 -60.5234375 30.0390625 C-60.53503906 29.24435547 -60.54664063 28.44964844 -60.55859375 27.63085938 C-60.50691352 17.04502626 -56.61585048 7.97594866 -49.14453125 0.4609375 C-34.88177031 -11.68409686 -14.60339433 -10.35513416 0 0 Z " fill="#F8F9FA" transform="translate(1135.1484375,472.5234375)"/>
<path d="M0 0 C9.84285212 2.46071303 19.35891188 4.93415937 28.9375 8.125 C35.27038822 10.22684692 41.50765405 12.26829208 48.06469727 13.54614258 C50.14519073 14.0340494 52.02716727 14.74658963 54 15.5625 C61.9215397 18.58765493 67.40426956 18.22470857 75.33203125 15.30078125 C79.81791991 13.70993894 84.35701348 12.41267181 88.9375 11.125 C89.82671143 10.87322998 90.71592285 10.62145996 91.63208008 10.36206055 C93.47580842 9.8403683 95.31980735 9.31963151 97.1640625 8.79980469 C101.92401619 7.45737973 106.68095928 6.10445883 111.4375 4.75 C112.30689209 4.5039502 113.17628418 4.25790039 114.07202148 4.00439453 C117.56788801 3.00969436 121.02781284 1.99061434 124.47265625 0.828125 C127 0 127 0 129 0 C129 12.54 129 25.08 129 38 C124.7925 38.1546875 124.7925 38.1546875 120.5 38.3125 C103.1554319 39.13771993 86.58239293 42.69916717 71.11108398 50.80175781 C68.41592709 52.15829939 66.45096745 53.02309171 63.40625 52.8671875 C60.64462198 51.87192545 58.11364741 50.65094041 55.5 49.3125 C37.41553031 40.91758398 19.80786989 39.0157882 0 38 C0 25.46 0 12.92 0 0 Z " fill="#FBFBFC" transform="translate(367,450)"/>
<path d="M0 0 C7.11676916 4.76310413 11.37616849 10.08602248 13.625 18.4375 C14.07262973 22.4168076 14.11291533 26.37317484 14.13671875 30.375 C14.15466995 31.49567871 14.17262115 32.61635742 14.19111633 33.77099609 C14.24500344 37.32645991 14.2790464 40.88179111 14.3125 44.4375 C14.34569205 46.85809128 14.38018345 49.27866511 14.41601562 51.69921875 C14.50071784 57.61188318 14.56763233 63.52450974 14.625 69.4375 C9.345 69.4375 4.065 69.4375 -1.375 69.4375 C-1.375 66.4675 -1.375 63.4975 -1.375 60.4375 C-2.035 60.4375 -2.695 60.4375 -3.375 60.4375 C-3.601875 61.015 -3.82875 61.5925 -4.0625 62.1875 C-7.00286655 67.22812837 -11.5296088 69.2705794 -16.9140625 70.8984375 C-25.88072823 72.86256428 -32.7468664 70.92957194 -40.625 66.6875 C-45.48042628 62.7148785 -47.42590354 58.63662896 -48.3125 52.5625 C-48.67129232 46.16242079 -47.70272804 41.13823111 -43.44921875 36.203125 C-34.32077289 27.56342149 -24.65665359 26.25599661 -12.5 26.375 C-11.62085938 26.37951172 -10.74171875 26.38402344 -9.8359375 26.38867188 C-7.68226197 26.40037663 -5.52862183 26.41830931 -3.375 26.4375 C-3.65968292 24.98793144 -3.95462906 23.54037591 -4.25390625 22.09375 C-4.41705322 21.28744141 -4.5802002 20.48113281 -4.74829102 19.65039062 C-5.58986588 16.67881503 -6.89762696 15.23922585 -9.375 13.4375 C-17.75289963 10.64486679 -26.24057501 12.18241955 -34.1328125 15.66015625 C-36.375 16.4375 -36.375 16.4375 -39.375 15.4375 C-40.61328125 13.73046875 -40.61328125 13.73046875 -41.6875 11.625 C-42.05488281 10.93792969 -42.42226563 10.25085938 -42.80078125 9.54296875 C-43.375 7.4375 -43.375 7.4375 -42.87890625 5.37890625 C-34.4739841 -5.47108417 -11.14612397 -5.6338038 0 0 Z " fill="#F7F8F9" transform="translate(634.375,467.5625)"/>
<path d="M0 0 C7.65373476 7.88566611 8.36721285 15.61153713 8.4765625 26.0859375 C8.49592865 27.23164215 8.5152948 28.3773468 8.5352478 29.55776978 C8.59486785 33.20510491 8.64135918 36.8524719 8.6875 40.5 C8.7256959 42.97787809 8.76474857 45.45574314 8.8046875 47.93359375 C8.90055518 53.99728944 8.98465153 60.06104728 9.0625 66.125 C3.7825 66.125 -1.4975 66.125 -6.9375 66.125 C-7.4325 62.165 -7.4325 62.165 -7.9375 58.125 C-8.45699219 58.60710937 -8.97648438 59.08921875 -9.51171875 59.5859375 C-10.55779297 60.53339844 -10.55779297 60.53339844 -11.625 61.5 C-12.30949219 62.12648438 -12.99398437 62.75296875 -13.69921875 63.3984375 C-18.80966447 67.34052652 -23.58826923 67.48977959 -29.8125 67.5 C-30.58980469 67.52449219 -31.36710938 67.54898438 -32.16796875 67.57421875 C-38.63748191 67.60683814 -42.74265941 65.98354158 -47.64453125 61.59765625 C-52.38000887 55.55699399 -53.47195268 50.70230169 -53.3046875 43.12890625 C-52.61413318 37.47958424 -50.19644559 34.11232889 -45.98828125 30.41015625 C-34.69193258 22.11535086 -22.30602775 22.75095829 -8.9375 23.125 C-9.19370684 21.5184324 -9.46805871 19.9147517 -9.75 18.3125 C-9.90082031 17.41917969 -10.05164063 16.52585937 -10.20703125 15.60546875 C-11.00713708 12.88853184 -11.71252384 11.83279042 -13.9375 10.125 C-22.53101843 7.26049386 -31.63373207 8.74236271 -39.73046875 12.34765625 C-41.9375 13.125 -41.9375 13.125 -44.9375 12.125 C-46.10546875 9.83984375 -46.10546875 9.83984375 -47.125 7.0625 C-47.46917969 6.14339844 -47.81335938 5.22429687 -48.16796875 4.27734375 C-48.42191406 3.56707031 -48.67585937 2.85679687 -48.9375 2.125 C-34.25542601 -7.99642976 -15.49268627 -9.88894868 0 0 Z " fill="#F7F9FA" transform="translate(778.9375,470.875)"/>
<path d="M0 0 C7.17719891 6.19639198 10.436175 10.87905388 12.5546875 20.16015625 C12.5546875 25.44015625 12.5546875 30.72015625 12.5546875 36.16015625 C-2.9553125 36.16015625 -18.4653125 36.16015625 -34.4453125 36.16015625 C-32.51692132 43.87372097 -31.55369564 47.59236149 -25.5703125 52.53515625 C-19.53386815 55.651161 -11.36039738 55.17246792 -4.9375 53.51171875 C-3.07839581 52.79776619 -1.25829006 51.98423696 0.5546875 51.16015625 C3.0296875 50.66515625 3.0296875 50.66515625 5.5546875 50.16015625 C7.2046875 53.46015625 8.8546875 56.76015625 10.5546875 60.16015625 C2.95282084 67.76202291 -5.78123285 68.64770378 -16.0703125 68.72265625 C-17.03549805 68.73707764 -18.00068359 68.75149902 -18.99511719 68.76635742 C-27.21412 68.65216568 -33.81886039 66.53129801 -40.6953125 62.03515625 C-44.42709723 58.13374494 -46.94817506 53.92607933 -49.4453125 49.16015625 C-49.78949219 48.52207031 -50.13367188 47.88398437 -50.48828125 47.2265625 C-55.1399407 37.0715313 -52.64578164 24.76156368 -49.2578125 14.59765625 C-44.83662007 6.21263613 -37.69829605 -0.88110412 -28.7578125 -4.21484375 C-18.98549576 -6.08081761 -8.19003011 -6.16214726 0 0 Z " fill="#F9FAFB" transform="translate(931.4453125,469.83984375)"/>
<path d="M0 0 C13.16520725 -1.21994198 13.16520725 -1.21994198 17.203125 1.46484375 C18.8125 3.4375 18.8125 3.4375 20.36328125 5.66015625 C32.62021083 23.18259257 56.83775257 32.67698254 76 40 C77.53914063 40.62455078 77.53914063 40.62455078 79.109375 41.26171875 C80.04265625 41.62910156 80.9759375 41.99648438 81.9375 42.375 C82.73027344 42.69210937 83.52304687 43.00921875 84.33984375 43.3359375 C92.6682526 45.41498229 99.20324723 42.92267387 107 40 C108.10706299 39.59136719 109.21412598 39.18273437 110.35473633 38.76171875 C119.23787887 35.41832929 127.7586245 31.71065406 136 27 C136.598125 26.66033203 137.19625 26.32066406 137.8125 25.97070312 C146.09833599 21.17598984 153.17023475 15.52529222 160.0625 8.89453125 C160.55024902 8.42563477 161.03799805 7.95673828 161.54052734 7.47363281 C162.54740108 6.45699015 163.51513943 5.40059662 164.44775391 4.31542969 C167.2238787 1.18154255 168.36224261 0.10242356 172.6484375 -0.5859375 C173.87820313 -0.51632812 175.10796875 -0.44671875 176.375 -0.375 C178.24285156 -0.29378906 178.24285156 -0.29378906 180.1484375 -0.2109375 C181.08945312 -0.14132812 182.03046875 -0.07171875 183 0 C181.61163356 4.16509933 179.68244634 6.75127978 176.6875 9.9375 C174.23215017 12.5679342 171.85849384 15.1763633 169.60546875 17.984375 C166.83361111 21.19258205 163.96497151 23.72922227 160.625 26.3125 C160.017771 26.78397461 159.41054199 27.25544922 158.78491211 27.74121094 C147.74704927 36.13943116 135.7109574 42.53121708 123 48 C122.37593262 48.26941406 121.75186523 48.53882813 121.10888672 48.81640625 C106.9439864 54.86360267 95.47280186 59.57219802 80.1875 55.1875 C78.50720703 54.71376953 78.50720703 54.71376953 76.79296875 54.23046875 C47.70432397 44.79388471 17.49142013 27.9807413 0 2 C0 1.34 0 0.68 0 0 Z " fill="#F6F8F9" transform="translate(339,563)"/>
<path d="M0 0 C0.74789795 0.00273926 1.4957959 0.00547852 2.26635742 0.00830078 C10.23510945 0.15673916 17.85748721 1.51668895 24.9375 5.3125 C24.47161505 11.01959064 22.99992216 14.47189723 19.9375 19.3125 C19.27105469 19.02375 18.60460937 18.735 17.91796875 18.4375 C10.62521523 15.49999928 3.30318719 13.24666473 -4.35546875 16.1953125 C-9.84814703 19.30748669 -13.86749558 23.72748675 -15.875 29.75 C-16.50445204 38.35251116 -15.88397383 45.73976655 -11.25 53.25 C-5.60972858 58.5679702 -0.04930655 58.81743706 7.3671875 58.68359375 C12.36172765 58.16446759 16.49992773 56.60285988 20.9375 54.3125 C21.80633706 55.88783086 22.65709068 57.47314509 23.5 59.0625 C23.97566406 59.94421875 24.45132813 60.8259375 24.94140625 61.734375 C25.9375 64.3125 25.9375 64.3125 25.86328125 66.50390625 C24.57035543 69.02974868 23.17010524 69.46624064 20.5625 70.5 C19.77101563 70.82355469 18.97953125 71.14710938 18.1640625 71.48046875 C8.95395873 74.92213911 -4.59466422 75.3596962 -14.00390625 72.25390625 C-24.0176038 67.5348074 -30.26774022 59.29939946 -34.3125 49.1875 C-36.77167259 36.48177496 -35.06531963 24.22234548 -27.8203125 13.46875 C-21.04734047 4.74424365 -10.89876097 -0.08032588 0 0 Z " fill="#F7F8F9" transform="translate(693.0625,464.6875)"/>
<path d="M0 0 C6.57948236 -0.10054781 13.02055244 0.15134562 19.56640625 0.8046875 C20.88305519 0.93074875 20.88305519 0.93074875 22.2263031 1.05935669 C24.07271556 1.23704813 25.918912 1.41699771 27.76489258 1.59912109 C30.53095089 1.87188887 33.29760173 2.13775481 36.06445312 2.40234375 C86.13078276 7.22806804 86.13078276 7.22806804 101.30859375 21.58203125 C106.18831204 25.67288053 114.04696851 24.49323161 120 24 C123.7196227 22.2684515 125.34211568 20.92591126 127.6875 17.625 C137.88545206 6.04894631 156.54823018 4.73604013 170.8828125 3.7265625 C172.85457463 3.61288238 174.8263522 3.49926099 176.79858398 3.39404297 C181.97289099 3.10480766 187.102411 2.59499088 192.25 2 C202.86044057 0.77909107 213.3042568 -0.18949151 224 0 C224 2.31 224 4.62 224 7 C223.3634549 7.04567108 222.72690979 7.09134216 222.07107544 7.13839722 C215.35290247 7.62111288 208.63510089 8.10877748 201.91748047 8.59912109 C199.42147589 8.7806896 196.92538385 8.96106045 194.42919922 9.14013672 C177.02933319 10.3763047 177.02933319 10.3763047 159.6640625 12.015625 C158.97023468 12.08707733 158.27640686 12.15852966 157.56155396 12.23214722 C149.23194829 13.17847744 140.4344269 15.39049962 134 21 C132.98377342 22.99180409 131.98287008 24.99152635 131 27 C124.98972018 31.46918243 118.89524004 31.23809112 111.6875 31.3125 C110.76259766 31.34150391 109.83769531 31.37050781 108.88476562 31.40039062 C102.68315575 31.4576905 99.02105689 30.7185778 94 27 C92.38648817 25.07879521 91.21642573 23.15499991 89.9453125 21 C84.1988857 15.09202707 75.35813956 14.00858643 67.5625 12.8125 C66.51787598 12.64451904 65.47325195 12.47653809 64.39697266 12.3034668 C56.49695538 11.09053851 48.66336702 10.4264417 40.6796875 10.17578125 C37 10 37 10 34.23046875 9.52246094 C30.69147433 8.95010241 27.21079063 8.68661925 23.6328125 8.46484375 C22.95322479 8.42186661 22.27363708 8.37888947 21.57345581 8.33460999 C19.42413967 8.19934775 17.2745885 8.06835499 15.125 7.9375 C13.65883647 7.84598626 12.1926904 7.75419215 10.7265625 7.66210938 C7.1512379 7.43816455 3.5756898 7.21804535 0 7 C0 4.69 0 2.38 0 0 Z " fill="#98A8B9" transform="translate(319,544)"/>
<path d="M0 0 C5.14662943 4.76063222 8.14932276 8.87586302 8.87109375 15.94921875 C9.12564456 24.36284737 8.77463283 31.32532404 3.5 38.3125 C-0.34686304 42.35687924 -3.65999884 44.46407572 -9.25 44.625 C-14.15231526 44.56151678 -16.74649492 43.62955101 -20.5 40.3125 C-26.96175171 33.55703231 -27.89767986 27.30480576 -27.86791992 18.29370117 C-27.68624369 10.82431094 -25.72636191 6.86467097 -20.9375 1.375 C-15.33603319 -3.36470269 -6.37489584 -3.07361049 0 0 Z " fill="#052D57" transform="translate(1120.5,480.6875)"/>
<path d="M0 0 C4.10488479 2.82780952 7.56757505 6.44765011 9.8125 10.9375 C10.10373419 13.97195945 10.09048167 17.01568232 10.125 20.0625 C10.15400391 20.89265625 10.18300781 21.7228125 10.21289062 22.578125 C10.28568723 29.72339215 8.38689798 34.78178635 3.875 40.3125 C-0.76755666 43.97027191 -5.63297877 44.55803687 -11.39453125 44.44140625 C-16.33528835 43.54999693 -19.15712938 40.79973707 -22.1875 36.9375 C-26.62026185 30.34825941 -26.01732246 21.50165084 -25.1875 13.9375 C-23.62466486 8.35181144 -21.17567683 4.22398732 -16.4375 0.8125 C-10.91581678 -2.1254522 -5.82860162 -1.94286721 0 0 Z " fill="#062D57" transform="translate(841.1875,480.0625)"/>
<path d="M0 0 C5.94 1.485 5.94 1.485 12 3 C12 20.82 12 38.64 12 57 C2 62 2 62 0 62 C0 41.54 0 21.08 0 0 Z " fill="#FAFBFC" transform="translate(320,443)"/>
<path d="M0 0 C-0.33 1.65 -0.66 3.3 -1 5 C-1.8751123 4.98952637 -2.75022461 4.97905273 -3.65185547 4.96826172 C-33.54558659 4.65789179 -64.93729521 4.76341577 -90.984375 21.703125 C-92.93546448 22.95847714 -94.90804211 24.00113723 -97 25 C-93.44546408 20.37506405 -89.87369054 17.11900688 -85 13.9375 C-84.0109668 13.2885376 -84.0109668 13.2885376 -83.00195312 12.62646484 C-76.97048661 8.78654704 -70.83781675 6.11203571 -64 4 C-62.22689453 3.44892578 -62.22689453 3.44892578 -60.41796875 2.88671875 C-42.7900509 -2.18938325 -17.94215742 -5.98071914 0 0 Z " fill="#133961" transform="translate(539,517)"/>
<path d="M0 0 C1.24716797 0.02707031 1.24716797 0.02707031 2.51953125 0.0546875 C4.55519074 0.10148427 6.5902509 0.17321702 8.625 0.25 C9.19214817 11.06782628 9.19214817 11.06782628 5.625 15.25 C1.92402438 18.65879334 -1.39880114 21.15382122 -6.55078125 21.3203125 C-10.61686998 21.09404897 -12.75073813 20.79622914 -15.875 18.0625 C-17.54693851 14.9276153 -18.30086293 12.80857941 -18.375 9.25 C-14.9626424 0.81946947 -8.1170632 -0.33659273 0 0 Z " fill="#072F59" transform="translate(761.375,504.75)"/>
<path d="M0 0 C1.13598633 0.00483398 1.13598633 0.00483398 2.29492188 0.00976562 C3.47344727 0.02233398 3.47344727 0.02233398 4.67578125 0.03515625 C5.47306641 0.03966797 6.27035156 0.04417969 7.09179688 0.04882812 C9.05732382 0.06059775 11.0228121 0.07853277 12.98828125 0.09765625 C13.54491539 7.92145834 12.64966667 11.85044916 7.42578125 17.91015625 C3.6593429 21.02156184 -1.48350003 20.55046409 -6.109375 20.5 C-9.10193552 20.08514975 -10.26532468 19.7498713 -12.32421875 17.59765625 C-14.11919971 13.87473278 -14.58233628 11.97678099 -13.796875 7.99609375 C-12.36674536 4.53816835 -10.10516155 3.1393285 -7.01171875 1.09765625 C-4.30455633 0.19526878 -2.77395107 -0.02085677 0 0 Z " fill="#072E57" transform="translate(618.01171875,504.90234375)"/>
<path d="M0 0 C3.88383075 1.97722293 6.99050561 4.08677409 9 8 C9.33 10.97 9.66 13.94 10 17 C-0.56 17 -11.12 17 -22 17 C-19.73889876 7.95559503 -19.73889876 7.95559503 -17.125 5.125 C-16.63257813 4.57070313 -16.14015625 4.01640625 -15.6328125 3.4453125 C-10.97684807 -0.67599573 -5.96537113 -0.7727653 0 0 Z " fill="#072D56" transform="translate(918,478)"/>
<path d="M0 0 C-0.99 1.485 -0.99 1.485 -2 3 C-1.34 3.33 -0.68 3.66 0 4 C-0.89460938 4.29132812 -1.78921875 4.58265625 -2.7109375 4.8828125 C-9.61048526 7.22189159 -15.75651885 9.68553011 -21.9140625 13.66796875 C-23.89129146 14.93058125 -25.88460516 15.99016219 -28 17 C-24.32490401 12.15652089 -20.54536936 9.00457163 -15.4375 5.75 C-14.77814453 5.316875 -14.11878906 4.88375 -13.43945312 4.4375 C-4.27908762 -1.52824558 -4.27908762 -1.52824558 0 0 Z " fill="#1E426B" transform="translate(470,525)"/>
<path d="M0 0 C8.06988369 3.48352897 14.39744379 8.2384538 21 14 C16.81321806 14 13.88477203 11.97458921 10.3125 10 C9.61060547 9.6184375 8.90871094 9.236875 8.18554688 8.84375 C6.45398753 7.90140478 4.72658574 6.95142732 3 6 C3.33 5.01 3.66 4.02 4 3 C2.68 2.67 1.36 2.34 0 2 C0 1.34 0 0.68 0 0 Z " fill="#1F4268" transform="translate(398,526)"/>
<path d="M0 0 C-2.37028948 2.60343271 -4.90952137 4.28213963 -7.9375 6.0625 C-8.79214844 6.56910156 -9.64679688 7.07570313 -10.52734375 7.59765625 C-12.65694635 8.80544034 -14.79774622 9.93208576 -17 11 C-13.26495132 5.93961146 -6.75027284 -2.25009095 0 0 Z " fill="#3D5A7B" transform="translate(459,531)"/>
<path d="M0 0 C4.875 1.75 4.875 1.75 6 4 C6.99 4.33 7.98 4.66 9 5 C9 5.66 9 6.32 9 7 C3.60204011 5.84941444 -1.70987333 4.57578241 -7 3 C-3.25 1.875 -3.25 1.875 -1 3 C-0.67 2.01 -0.34 1.02 0 0 Z " fill="#0D325B" transform="translate(393,524)"/>
<path d="M0 0 C0.66 0 1.32 0 2 0 C2 2.31 2 4.62 2 7 C1.34 6.34 0.68 5.68 0 5 C-0.99 5.99 -1.98 6.98 -3 8 C-3.99 7.67 -4.98 7.34 -6 7 C-5.04882866 5.8274869 -4.08882991 4.66212985 -3.125 3.5 C-2.59132813 2.8503125 -2.05765625 2.200625 -1.5078125 1.53125 C-0.76144531 0.77328125 -0.76144531 0.77328125 0 0 Z " fill="#28466A" transform="translate(851,527)"/>
<path d="M0 0 C2.0625 -0.375 2.0625 -0.375 5 0 C7.53572282 1.79177109 9.77174488 3.84238121 12 6 C8.55639368 6 7.25204608 5.20408468 4.3125 3.5 C3.50425781 3.0359375 2.69601562 2.571875 1.86328125 2.09375 C1.24839844 1.7328125 0.63351562 1.371875 0 1 C0 0.67 0 0.34 0 0 Z " fill="#59708C" transform="translate(407,534)"/>
<path d="M0 0 C-1.49097658 3.7952131 -3.75700849 5.61042731 -7 8 C-6.44414399 4.1090079 -4.34122117 0 0 0 Z " fill="#193C60" transform="translate(983,481)"/>
<path d="M0 0 C0.66 0 1.32 0 2 0 C1.34 1.65 0.68 3.3 0 5 C-1.32 5 -2.64 5 -4 5 C-2.71937515 3.2925002 -1.38232443 1.62626404 0 0 Z " fill="#204067" transform="translate(769,530)"/>
<path d="M0 0 C0.66 0 1.32 0 2 0 C2 2.31 2 4.62 2 7 C1.01 6.34 0.02 5.68 -1 5 C-1.66 4.67 -2.32 4.34 -3 4 C-1.625 2 -1.625 2 0 0 Z " fill="#2A4768" transform="translate(631,528)"/>
<path d="M0 0 C1.32 0.66 2.64 1.32 4 2 C1.08291076 3.98362069 -0.12380904 3.9876191 -3.75 3.625 C-4.8225 3.41875 -5.895 3.2125 -7 3 C-3.25 1.875 -3.25 1.875 -1 3 C-0.67 2.01 -0.34 1.02 0 0 Z " fill="#1F4368" transform="translate(393,524)"/>
</svg>
