<?xml version="1.0" encoding="UTF-8"?>
<svg version="1.1" xmlns="http://www.w3.org/2000/svg" width="1536" height="1024">
<path d="M0 0 C506.88 0 1013.76 0 1536 0 C1536 337.92 1536 675.84 1536 1024 C1029.12 1024 522.24 1024 0 1024 C0 686.08 0 348.16 0 0 Z " fill="#012A55" transform="translate(0,0)"/>
<path d="M0 0 C0.88526367 0.27875977 1.77052734 0.55751953 2.68261719 0.84472656 C5.63322541 1.80263743 8.56677841 2.80266767 11.5 3.8125 C18.36140653 6.14137725 25.21094186 8.41687061 32.1875 10.375 C40.95245491 12.86248321 49.51764276 15.90680434 58.11669922 18.90991211 C69.57892218 22.90138946 81.11775609 26.64038174 92.67944336 30.33251953 C99.17808449 32.41162271 105.64441852 34.50874361 112 37 C108.60326697 38.85276347 105.13095396 39.99049196 101.4375 41.125 C100.30183594 41.47820312 99.16617188 41.83140625 97.99609375 42.1953125 C95 43 95 43 92 43 C92 53.23 92 63.46 92 74 C93.32 74.66 94.64 75.32 96 76 C98.46466096 79.69699144 98.25779399 81.59420931 98.265625 86.00390625 C98.26753845 86.68299545 98.2694519 87.36208466 98.27142334 88.06175232 C98.27278247 89.49486665 98.26910496 90.92799341 98.26074219 92.36108398 C98.25002167 94.55805985 98.26065453 96.75422114 98.2734375 98.95117188 C98.27211618 100.34375181 98.26955436 101.73633123 98.265625 103.12890625 C98.26336914 104.39806885 98.26111328 105.66723145 98.25878906 106.97485352 C98 110 98 110 96 112 C92.84765625 112.30078125 92.84765625 112.30078125 89.0625 112.3125 C87.81597656 112.32925781 86.56945312 112.34601563 85.28515625 112.36328125 C82 112 82 112 80.3059082 110.91064453 C78.31006293 107.9905688 78.71324626 105.56263431 78.8203125 102.06640625 C78.83963837 101.39206039 78.85896423 100.71771454 78.87887573 100.02293396 C78.9237259 98.59795739 78.9763329 97.17320681 79.03613281 95.7487793 C79.12452606 93.57415963 79.18118221 91.40034236 79.234375 89.22460938 C79.28194791 87.83847493 79.3313664 86.45240235 79.3828125 85.06640625 C79.42809082 83.80771729 79.47336914 82.54902832 79.52001953 81.25219727 C80.01786269 77.87896804 80.58664841 76.37064069 83 74 C83.66 74 84.32 74 85 74 C85 64.76 85 55.52 85 46 C78.565 47.98 78.565 47.98 72 50 C66.01535185 50.67000281 60.9258396 49.08263672 55.24609375 47.3671875 C54.30935318 47.09286896 53.37261261 46.81855042 52.40748596 46.53591919 C49.41480819 45.65776598 46.42608932 44.76695738 43.4375 43.875 C39.54139721 42.72304677 35.64374624 41.57638421 31.74609375 40.4296875 C30.78593353 40.14575134 29.82577332 39.86181519 28.83651733 39.5692749 C20.83010236 37.21232482 12.78694651 35.00470363 4.71812439 32.87155151 C3.84958328 32.63953033 2.98104218 32.40750916 2.08618164 32.16845703 C1.31891251 31.96608429 0.55164337 31.76371155 -0.23887634 31.5552063 C-2 31 -2 31 -3 30 C-8.23087636 29.56409364 -12.0901769 30.49559128 -16.984375 32.34375 C-19 33 -19 33 -22 33 C-22 33.66 -22 34.32 -22 35 C-21.05511719 35.10957031 -20.11023438 35.21914063 -19.13671875 35.33203125 C-14.25131719 36.03379487 -9.56028872 37.36389944 -4.8125 38.6875 C-3.84707275 38.95369141 -2.88164551 39.21988281 -1.88696289 39.49414062 C5.2679499 41.48145404 12.38762804 43.57535322 19.49072266 45.73999023 C23.9190662 47.08722826 28.35523254 48.39199975 32.8125 49.640625 C33.772771 49.91003906 34.73304199 50.17945313 35.72241211 50.45703125 C37.57612891 50.97459956 39.431066 51.48782257 41.28735352 51.99609375 C42.53923462 52.34607422 42.53923462 52.34607422 43.81640625 52.703125 C44.92157593 53.00718262 44.92157593 53.00718262 46.04907227 53.31738281 C48 54 48 54 51 56 C39.94222654 59.80051281 28.78436407 63.26592745 17.60864258 66.70092773 C16.41392334 67.06903564 15.2192041 67.43714355 13.98828125 67.81640625 C12.81861816 68.17492676 11.64895508 68.53344727 10.44384766 68.90283203 C6.15244289 70.27002138 1.92516904 71.79857407 -2.29223633 73.37866211 C-7.8652656 74.65747912 -13.48287353 72.4386515 -18.875 70.9375 C-19.64674561 70.72343506 -20.41849121 70.50937012 -21.21362305 70.28881836 C-28.85919092 68.11997513 -36.36692656 65.57115324 -43.89086914 63.01782227 C-51.34236429 60.50640774 -58.83711714 58.26167408 -66.41064453 56.15087891 C-72.21032049 54.5296184 -77.95489343 52.78136207 -83.6875 50.9375 C-90.57296711 48.72382911 -97.49282356 46.72697957 -104.47290039 44.83496094 C-111.74782706 42.84094204 -118.87360045 40.47006474 -126 38 C-123.41782976 35.41782976 -120.55056785 34.5372858 -117.1875 33.3125 C-116.13973389 32.92602295 -116.13973389 32.92602295 -115.07080078 32.53173828 C-109.20268319 30.39054728 -103.29626373 28.36387499 -97.375 26.375 C-96.55410889 26.09825439 -95.73321777 25.82150879 -94.88745117 25.53637695 C-90.07449346 23.94024061 -85.2402088 22.49412782 -80.35546875 21.1328125 C-72.43733838 18.89489316 -64.69890693 16.22125601 -56.9375 13.5 C-48.31380395 10.48432025 -39.69378362 7.55144548 -30.94555664 4.91113281 C-28.23648525 4.07315068 -25.56405696 3.17115569 -22.890625 2.2265625 C-22.11589844 1.95972656 -21.34117187 1.69289063 -20.54296875 1.41796875 C-18.9930438 0.88196404 -17.44876663 0.32938635 -15.91015625 -0.23828125 C-9.94682187 -2.24603705 -5.93671407 -1.92077285 0 0 Z " fill="#F9FAFB" transform="translate(439,385)"/>
<path d="M0 0 C5.96862946 5.19558407 11.506459 11.0276858 16 17.5625 C16 18.2225 16 18.8825 16 19.5625 C19.26306905 16.50337277 21.9798273 13.31446163 24.6875 9.75 C35.09668195 -3.33416725 49.99066213 -11.40522288 66 -15.4375 C67.83884766 -15.97503906 67.83884766 -15.97503906 69.71484375 -16.5234375 C74.69027038 -17.75487334 79.58575661 -17.73913083 84.6875 -17.6875 C85.66211182 -17.68000732 86.63672363 -17.67251465 87.64086914 -17.66479492 C117.21268134 -17.22481866 117.21268134 -17.22481866 125 -9.4375 C125.04092937 -7.10452567 125.04241723 -4.77044775 125 -2.4375 C124.20980469 -2.5096875 123.41960937 -2.581875 122.60546875 -2.65625 C90.4699857 -5.30054118 59.40753634 -2.49552407 33.1328125 17.7421875 C32.42898438 18.34289062 31.72515625 18.94359375 31 19.5625 C31 19.8925 31 20.2225 31 20.5625 C32.00740234 19.68078125 32.00740234 19.68078125 33.03515625 18.78125 C36.31839737 16.32422634 39.69079708 14.66182398 43.4375 13.0625 C44.13617188 12.76061768 44.83484375 12.45873535 45.5546875 12.14770508 C52.22113781 9.34113553 58.98314702 7.32506664 66 5.5625 C66.63139893 5.39459961 67.26279785 5.22669922 67.91333008 5.05371094 C80.84344702 1.67177085 94.01005055 1.36695399 107.3125 1.3125 C108.58246826 1.30331543 109.85243652 1.29413086 111.16088867 1.28466797 C112.36205322 1.28869629 113.56321777 1.29272461 114.80078125 1.296875 C115.87497314 1.29913086 116.94916504 1.30138672 118.0559082 1.30371094 C121.06951078 1.56861008 123.2707438 2.29202225 126 3.5625 C126.33 6.2025 126.66 8.8425 127 11.5625 C120.98872227 13.0409572 115.12761395 13.97105764 108.9609375 14.45703125 C107.23942752 14.60558521 105.51799441 14.75503217 103.79663086 14.90527344 C102.91039032 14.98128784 102.02414978 15.05730225 101.11105347 15.13562012 C74.62521805 17.45289069 49.28219066 19.99083156 28 37.5625 C27.21625 38.531875 26.4325 39.50125 25.625 40.5 C21.8378491 43.47561856 18.63241244 43.37843785 13.91015625 43.171875 C9.91340501 42.33497139 8.50125079 40.68265191 5.9453125 37.6328125 C-1.62460491 29.5764747 -12.71890118 25.77567963 -23 22.5625 C-23.98250732 22.23894531 -24.96501465 21.91539062 -25.97729492 21.58203125 C-39.15355528 17.62985889 -52.80258877 16.69041729 -66.4375 15.3125 C-69.0189947 15.04276015 -71.60037631 14.77193566 -74.18164062 14.5 C-80.45319295 13.84165216 -86.726094 13.19800958 -93 12.5625 C-92.34 9.2625 -91.68 5.9625 -91 2.5625 C-85.65131538 2.48694813 -80.30295775 2.43325515 -74.95385742 2.39770508 C-73.14358088 2.3828471 -71.33333876 2.36255506 -69.52319336 2.33618164 C-43.41508564 1.9660083 -20.71163544 6.51539028 2 19.5625 C-18.93639633 1.1024114 -43.79075132 -2.60378184 -70.75 -3.0625 C-72.62241229 -3.10076544 -74.49480859 -3.13982184 -76.3671875 -3.1796875 C-80.91132549 -3.27474004 -85.45554539 -3.35910338 -90 -3.4375 C-89.19677734 -10.25585938 -89.19677734 -10.25585938 -87.42578125 -11.890625 C-84.96340228 -12.81913759 -82.52191418 -13.68092575 -80 -14.4375 C-79.030625 -14.7365625 -78.06125 -15.035625 -77.0625 -15.34375 C-50.98930976 -22.11275131 -21.19303823 -16.79005245 0 0 Z " fill="#F6F7F8" transform="translate(414,519.4375)"/>
</svg>